<svg width="27" height="22" viewBox="0 0 27 22" fill="none" xmlns="http://www.w3.org/2000/svg">
<g clip-path="url(#clip0_224_156)">
<path d="M1.14893 17.9159L7.35745 11.7074C7.83057 11.2343 8.46301 10.9688 9.13407 10.9688H13.9425C14.6039 10.9688 15.1446 11.5095 15.1446 12.1709C15.1446 13.0302 14.4446 13.7302 13.5853 13.7302H9.68926C9.50581 13.7302 9.35132 13.8799 9.35132 14.0682C9.35132 14.2565 9.50098 14.4061 9.68926 14.4061H15.444C15.5647 14.4061 15.6805 14.3723 15.7819 14.3047L19.9048 11.5819C20.4021 11.2536 21.0587 11.3357 21.4594 11.7798C21.6815 12.026 21.7877 12.3398 21.7635 12.6681C21.7394 12.9964 21.5897 13.2909 21.3387 13.5033L17.4475 16.7814C17.0564 17.1097 16.593 17.3462 16.0957 17.4669L10.1044 18.9298C10.0127 18.9539 9.91617 18.9635 9.81961 18.9635H7.47814C7.30434 18.9635 7.1402 19.036 7.02433 19.1663L4.92425 21.5174C4.86631 21.5802 4.78424 21.614 4.70217 21.614" fill="white"/>
<path d="M5.04003 6.6333C3.9055 6.6333 2.9834 7.55541 2.9834 8.68993C2.9834 9.82446 3.9055 10.7466 5.04003 10.7466C6.17456 10.7466 7.09666 9.82446 7.09666 8.68993C7.09666 7.55541 6.17456 6.6333 5.04003 6.6333Z" fill="white"/>
<path d="M23.9023 4.60087C22.1112 4.60087 20.2959 3.26358 20.2959 3.26358C20.2959 3.26358 16.4385 0 11.519 0C8.2651 0 5.88983 1.94077 4.98704 2.61183C3.06558 4.03602 1.00412 4.0505 1.00412 4.0505C0.4441 4.0505 -0.00488281 4.50431 -0.00488281 5.05951V8.40999C-0.00488281 8.97001 0.448928 9.41899 1.00412 9.41899H2.36556C2.30279 9.18726 2.26417 8.94587 2.26417 8.69C2.26417 7.16442 3.50491 5.92368 5.03049 5.92368C6.55606 5.92368 7.7968 7.16442 7.7968 8.69C7.7968 8.94104 7.75818 9.18243 7.69542 9.41899H18.2489C18.1862 9.18726 18.1476 8.94587 18.1476 8.69C18.1476 7.16442 19.3883 5.92368 20.9139 5.92368C22.4394 5.92368 23.6802 7.16442 23.6802 8.69C23.6802 8.94104 23.6416 9.18243 23.5788 9.41899H25.3216C25.8816 9.41899 26.3306 8.96518 26.3306 8.40999V7.1789C26.3306 5.69195 25.4713 4.6057 23.883 4.6057L23.9023 4.60087ZM10.9735 1.96008L10.2831 4.24844C10.23 4.42707 10.0659 4.55259 9.87757 4.55259L6.12156 4.62984C5.73052 4.63949 5.5374 4.16637 5.81259 3.88636C7.52645 2.16767 9.47204 1.59799 10.4762 1.40971C10.7949 1.35178 11.0556 1.6511 10.9638 1.96008H10.9735ZM18.2972 4.54776H12.277C11.9873 4.54776 11.7797 4.26775 11.8666 3.99257L12.5715 1.6511C12.6294 1.45799 12.8129 1.32281 13.0156 1.34212C15.0143 1.54489 17.2592 2.88218 18.5483 3.76084C18.8959 3.9974 18.7221 4.54294 18.302 4.54294L18.2972 4.54776Z" fill="white"/>
<path d="M20.9282 6.6333C19.7937 6.6333 18.8716 7.55541 18.8716 8.68993C18.8716 9.82446 19.7937 10.7466 20.9282 10.7466C22.0627 10.7466 22.9848 9.82446 22.9848 8.68993C22.9848 7.55541 22.0627 6.6333 20.9282 6.6333Z" fill="white"/>
</g>
<defs>
<clipPath id="clip0_224_156">
<rect width="26.35" height="21.6091" fill="white"/>
</clipPath>
</defs>
</svg>
