<svg width="27" height="22" viewBox="0 0 27 22" fill="none" xmlns="http://www.w3.org/2000/svg">
<g clip-path="url(#clip0_224_162)">
<path d="M5.03972 16.916C3.90536 16.916 2.98315 17.8382 2.98315 18.9726C2.98315 20.1069 3.90536 21.0291 5.03972 21.0291C6.17408 21.0291 7.09628 20.1069 7.09628 18.9726C7.09628 17.8382 6.17408 16.916 5.03972 16.916Z" fill="white"/>
<path d="M23.9037 14.8851C22.1112 14.8851 20.2971 13.5472 20.2971 13.5472C20.2971 13.5472 16.4395 10.2827 11.521 10.2827C8.26949 10.2827 5.89253 12.2224 4.99197 12.8935C3.06963 14.3179 1.00873 14.3309 1.00873 14.3309C0.450214 14.3309 -0.00439453 14.7855 -0.00439453 15.344V18.6908C-0.00439453 19.2493 0.450214 19.7039 1.00873 19.7039H2.37256C2.30762 19.4701 2.27298 19.2277 2.27298 18.9766C2.27298 17.4525 3.51558 16.2099 5.0396 16.2099C6.56362 16.2099 7.80622 17.4525 7.80622 18.9766C7.80622 19.2277 7.77158 19.4701 7.70664 19.7039H18.2622C18.1973 19.4701 18.1626 19.2277 18.1626 18.9766C18.1626 17.4525 19.4052 16.2099 20.9293 16.2099C22.4533 16.2099 23.6959 17.4525 23.6959 18.9766C23.6959 19.2277 23.6612 19.4701 23.5963 19.7039H25.3411C25.8997 19.7039 26.3543 19.2493 26.3543 18.6908V17.4569C26.3543 15.9675 25.497 14.8851 23.908 14.8851H23.9037ZM10.9755 12.244L10.2871 14.5344C10.2351 14.7119 10.0706 14.8375 9.88443 14.8418L6.13066 14.9154C5.741 14.9241 5.54616 14.4521 5.82326 14.175C7.53778 12.4605 9.48178 11.889 10.4862 11.6985C10.8023 11.6379 11.0664 11.9366 10.9755 12.2484V12.244ZM18.2969 14.8331H12.2787C11.9886 14.8331 11.7851 14.556 11.8674 14.2789L12.5731 11.9366C12.6294 11.7418 12.8156 11.6076 13.0147 11.6292C15.015 11.8284 17.2578 13.1662 18.5436 14.0495C18.89 14.2876 18.7212 14.8331 18.2969 14.8331Z" fill="white"/>
<path d="M20.9294 16.916C19.795 16.916 18.8728 17.8382 18.8728 18.9726C18.8728 20.1069 19.795 21.0291 20.9294 21.0291C22.0637 21.0291 22.9859 20.1069 22.9859 18.9726C22.9859 17.8382 22.0637 16.916 20.9294 16.916Z" fill="white"/>
<path d="M17.0414 10.5729C16.9505 10.5729 16.8639 10.5426 16.7859 10.4863C16.6041 10.3434 16.5695 10.0837 16.7123 9.90182C17.483 8.91034 17.89 7.71969 17.89 6.45978C17.89 3.35978 15.3658 0.835615 12.2658 0.835615C9.16582 0.835615 6.64166 3.35978 6.64166 6.45978C6.64166 7.56383 6.96205 8.63324 7.56819 9.55112C7.69375 9.74162 7.6418 10.0014 7.45129 10.127C7.26079 10.2525 7.00101 10.2006 6.87546 10.0101C6.18272 8.95796 5.8147 7.72835 5.8147 6.45978C5.81037 2.89651 8.70688 0 12.2658 0C15.8248 0 18.7213 2.89651 18.7213 6.45545C18.7213 7.90154 18.2537 9.26969 17.3704 10.4084C17.2882 10.5166 17.1669 10.5686 17.0414 10.5686V10.5729Z" fill="white"/>
<path d="M8.89307 6.01365V5.56337H13.188V6.01365H8.89307ZM8.89307 7.1177V6.67175H13.188V7.1177H8.89307ZM12.6685 9.20457C12.2485 9.20457 11.8545 9.1353 11.4952 8.99242C11.1358 8.84954 10.8241 8.65038 10.5556 8.3906C10.2872 8.13083 10.0794 7.82775 9.93217 7.48139C9.78497 7.13502 9.70703 6.75401 9.70703 6.33837C9.70703 5.92273 9.78064 5.54172 9.93217 5.19535C10.0837 4.84898 10.2915 4.54591 10.5556 4.28613C10.8241 4.02636 11.1358 3.8272 11.4952 3.68432C11.8545 3.54144 12.2442 3.47217 12.6685 3.47217C13.0928 3.47217 13.5084 3.54577 13.8764 3.69298C14.2445 3.84018 14.5519 4.05666 14.803 4.34675L14.2921 4.84898C14.0713 4.62384 13.8331 4.45932 13.569 4.35108C13.3049 4.24284 13.0192 4.18655 12.7075 4.18655C12.3957 4.18655 12.1013 4.23851 11.8372 4.34675C11.5688 4.45499 11.3393 4.6022 11.1358 4.7927C10.9323 4.9832 10.7808 5.21267 10.6769 5.47678C10.5686 5.74088 10.5167 6.02664 10.5167 6.33837C10.5167 6.6501 10.5686 6.93585 10.6769 7.19996C10.7851 7.46407 10.9366 7.69354 11.1358 7.88404C11.335 8.07454 11.5688 8.22608 11.8372 8.32999C12.1056 8.43823 12.3957 8.49018 12.7075 8.49018C13.0192 8.49018 13.3049 8.4339 13.569 8.32566C13.8331 8.21742 14.0756 8.04856 14.2921 7.8191L14.803 8.32133C14.5519 8.61141 14.2445 8.82789 13.8764 8.97943C13.5084 9.12664 13.1058 9.20457 12.6685 9.20457Z" fill="white"/>
</g>
<defs>
<clipPath id="clip0_224_162">
<rect width="26.35" height="21.0332" fill="white"/>
</clipPath>
</defs>
</svg>
