<svg width="26" height="21" viewBox="0 0 26 21" fill="none" xmlns="http://www.w3.org/2000/svg">
<g clip-path="url(#clip0_224_169)">
<path d="M4.97285 16.8643C3.85356 16.8643 2.9436 17.7915 2.9436 18.932C2.9436 20.0726 3.85356 20.9998 4.97285 20.9998C6.09214 20.9998 7.0021 20.0726 7.0021 18.932C7.0021 17.7915 6.09214 16.8643 4.97285 16.8643Z" fill="white"/>
<path d="M23.5864 14.8228C21.8177 14.8228 20.0277 13.4777 20.0277 13.4777C20.0277 13.4777 16.2213 10.1953 11.3682 10.1953C8.15983 10.1953 5.81445 12.1456 4.92585 12.8203C3.02904 14.2525 0.995521 14.2656 0.995521 14.2656C0.44442 14.2656 -0.00415039 14.7227 -0.00415039 15.2842V18.6493C-0.00415039 19.2109 0.44442 19.6679 0.995521 19.6679H1.58934H2.34123C2.27715 19.4329 2.24297 19.1891 2.24297 18.9366C2.24297 17.4043 3.46907 16.1549 4.97285 16.1549C6.47663 16.1549 7.70272 17.4043 7.70272 18.9366C7.70272 19.1891 7.66854 19.4329 7.60446 19.6679H18.0198C17.9558 19.4329 17.9216 19.1891 17.9216 18.9366C17.9216 17.4043 19.1477 16.1549 20.6515 16.1549C22.1552 16.1549 23.3813 17.4043 23.3813 18.9366C23.3813 19.1891 23.3471 19.4329 23.2831 19.6679H24.4835H25.0047C25.5558 19.6679 26.0044 19.2109 26.0044 18.6493V17.4086C26.0044 15.9111 25.1585 14.8228 23.5907 14.8228H23.5864ZM10.8299 12.1673L10.1506 14.4702C10.0994 14.6487 9.93703 14.7749 9.75333 14.7793L6.04942 14.8533C5.66493 14.862 5.47268 14.3875 5.7461 14.1089C7.43785 12.385 9.35602 11.8104 10.3471 11.6188C10.659 11.5579 10.9196 11.8582 10.8299 12.1717V12.1673ZM18.054 14.7706H12.1158C11.8296 14.7706 11.6288 14.492 11.7099 14.2133L12.4063 11.8582C12.4618 11.6624 12.6455 11.5274 12.8421 11.5492C14.8158 11.7494 17.0287 13.0946 18.2975 13.9826C18.6393 14.2221 18.4727 14.7706 18.054 14.7706Z" fill="white"/>
<path d="M20.6516 16.8643C19.5323 16.8643 18.6223 17.7915 18.6223 18.932C18.6223 20.0726 19.5323 20.9998 20.6516 20.9998C21.7709 20.9998 22.6808 20.0726 22.6808 18.932C22.6808 17.7915 21.7709 16.8643 20.6516 16.8643Z" fill="white"/>
<path d="M16.8835 10.6306C16.7938 10.6306 16.7083 10.6001 16.6314 10.5435C16.452 10.3999 16.4178 10.1387 16.5588 9.95585C17.3192 8.95895 17.7208 7.76182 17.7208 6.49502C17.7208 3.37811 15.2302 0.840174 12.1713 0.840174C9.11252 0.840174 6.62188 3.37811 6.62188 6.49502C6.62188 7.6051 6.93802 8.68035 7.53611 9.60323C7.66 9.79478 7.60874 10.056 7.42077 10.1822C7.23279 10.3085 6.97647 10.2562 6.85258 10.0647C6.16904 9.00684 5.80591 7.77052 5.80591 6.49502C5.80164 2.91231 8.65968 0 12.1713 0C15.683 0 18.541 2.91231 18.541 6.49067C18.541 7.94465 18.0797 9.32027 17.2081 10.4652C17.127 10.574 17.0074 10.6262 16.8835 10.6262V10.6306Z" fill="white"/>
<path d="M14.9438 4.41H12.9829C12.9317 4.41 12.8975 4.36212 12.9103 4.31423C12.9915 4.02692 12.9957 3.71348 12.9957 3.41746C12.9957 3.25204 13.0043 3.0692 12.9872 2.89072C12.9701 2.70789 12.9231 2.53376 12.8206 2.39445C12.7052 2.24209 12.5301 2.12891 12.3378 2.12891C11.8893 2.12891 11.8209 2.57729 11.7782 2.93861C11.7312 3.36087 11.7098 3.80055 11.5261 4.18799C11.398 4.46224 11.2143 4.69296 10.928 4.8105C10.7102 4.89756 10.5478 4.96722 10.3171 5.0151C10.283 5.02381 10.2573 5.05428 10.2573 5.08911V8.04495C10.2573 8.08848 10.2915 8.12331 10.3342 8.12331H11.1374C11.163 8.12331 11.1844 8.13637 11.1972 8.15378C11.3553 8.37144 11.6073 8.51075 11.8935 8.51075H14.4055C14.7729 8.51075 15.072 8.20602 15.072 7.83164C15.072 7.73587 15.0506 7.64445 15.0079 7.56174C14.9908 7.53127 14.9994 7.49209 15.0293 7.46597C15.166 7.35714 15.2514 7.10465 15.2514 6.91311V6.83475C15.2514 6.73898 15.23 6.64756 15.1873 6.56485C15.1702 6.53438 15.1788 6.4952 15.2087 6.46908C15.3454 6.36025 15.4308 6.19047 15.4308 5.99893V5.92057C15.4308 5.8248 15.4095 5.73338 15.3668 5.65067C15.3497 5.6202 15.3582 5.58102 15.3881 5.5549C15.5248 5.44607 15.6103 5.27629 15.6103 5.08475C15.6103 4.71037 15.3112 4.40565 14.9438 4.40565V4.41Z" fill="white"/>
<path d="M9.84313 5.46323C9.84313 5.02806 9.49693 4.67529 9.06988 4.67529C8.64283 4.67529 8.29663 5.02806 8.29663 5.46323V7.63114C8.29663 8.0663 8.64283 8.41907 9.06988 8.41907C9.49693 8.41907 9.84313 8.0663 9.84313 7.63114V5.46323Z" fill="white"/>
</g>
<defs>
<clipPath id="clip0_224_169">
<rect width="26" height="21" fill="white"/>
</clipPath>
</defs>
</svg>
